<svg width="21" height="21" viewBox="0 0 21 21" fill="none" xmlns="http://www.w3.org/2000/svg">
<path d="M6.90024 1.95093C4.03212 1.95093 1.70024 4.2828 1.70024 7.15093V14.3509C1.70024 17.2191 4.03212 19.5509 6.90024 19.5509H14.1002C16.9684 19.5509 19.3002 17.2191 19.3002 14.3509V7.15093C19.3002 4.2828 16.9684 1.95093 14.1002 1.95093H6.90024ZM15.3002 5.15093C15.7402 5.15093 16.1002 5.51093 16.1002 5.95093C16.1002 6.39093 15.7402 6.75093 15.3002 6.75093C14.8602 6.75093 14.5002 6.39093 14.5002 5.95093C14.5002 5.51093 14.8602 5.15093 15.3002 5.15093ZM10.5002 6.35093C12.9284 6.35093 14.9002 8.3228 14.9002 10.7509C14.9002 13.1791 12.9284 15.1509 10.5002 15.1509C8.07212 15.1509 6.10024 13.1791 6.10024 10.7509C6.10024 8.3228 8.07212 6.35093 10.5002 6.35093ZM10.5002 7.15093C8.51618 7.15093 6.90024 8.76687 6.90024 10.7509C6.90024 12.735 8.51618 14.3509 10.5002 14.3509C12.4843 14.3509 14.1002 12.735 14.1002 10.7509C14.1002 8.76687 12.4843 7.15093 10.5002 7.15093Z" fill="white"/>
</svg>
